<?xml version="1.0" encoding="utf-8"?>
<svg xmlns="http://www.w3.org/2000/svg" viewBox="303.2709 226.9163 24 24" width="24px" height="24px"><g transform="matrix(1, 0, 0, 1, 303.27093505859375, 226.916259765625)" id="object-1"><rect fill="none" height="24" width="24"/><g><path d="M 15 22 L 6 22 C 4.9 22 4 21.1 4 20 L 4 4 C 4 2.9 4.9 2 6 2 L 14 2 L 20 8 L 20 14 L 18 14 L 18 9 L 13 9 L 13 4 L 6 4 L 6 20 L 15 20 Z M 22.642 15.998 L 22.642 21.658 L 16.992 21.658 L 16.992 19.658 L 19.232 19.658 L 16.282 16.698 L 17.692 15.288 L 20.642 18.238 L 20.642 15.998 Z" id="object-0"/></g></g></svg>