<?xml version="1.0" encoding="iso-8859-1"?>
<!-- Generator: Adobe Illustrator 19.0.0, SVG Export Plug-In . SVG Version: 6.00 Build 0)  -->
<svg version="1.1" id="Layer_1" xmlns="http://www.w3.org/2000/svg" xmlns:xlink="http://www.w3.org/1999/xlink" x="0px" y="0px"
	 viewBox="0 0 383.64 383.64" style="enable-background:new 0 0 383.64 383.64;" xml:space="preserve">
<g>
	<g>
		<path d="M19.64,339.859c-4.48,0-8.28-0.866-11.4-2.6c-3.12-1.732-5.454-4.28-7-7.641l6.64-8.72c0.16,0.48,0.492,1.12,1,1.92
			c0.506,0.8,1.212,1.588,2.12,2.36c0.906,0.773,2.053,1.453,3.44,2.04c1.386,0.587,3.04,0.88,4.96,0.88
			c1.172,0,2.292-0.133,3.36-0.4c1.066-0.266,2.012-0.652,2.84-1.16c0.826-0.506,1.48-1.146,1.96-1.92
			c0.48-0.772,0.72-1.666,0.72-2.68c0-2.452-1.348-4.213-4.04-5.28c-2.694-1.066-6.547-1.6-11.56-1.6h-2.64v-10.641h2.64
			c1.973,0,3.813-0.119,5.52-0.359c1.706-0.24,3.2-0.626,4.48-1.16c1.28-0.532,2.292-1.213,3.04-2.04c0.746-0.826,1.12-1.826,1.12-3
			c0-0.96-0.228-1.772-0.68-2.44c-0.454-0.666-1-1.186-1.64-1.56c-0.64-0.372-1.333-0.64-2.08-0.8c-0.748-0.16-1.414-0.24-2-0.24
			c-1.6,0-3.014,0.188-4.24,0.561c-1.228,0.373-2.308,0.854-3.24,1.439c-0.934,0.588-1.733,1.228-2.4,1.92
			c-0.667,0.694-1.188,1.36-1.56,2l-8.16-9.439c0.96-1.227,2.172-2.32,3.64-3.28c1.466-0.96,3.066-1.76,4.8-2.4
			c1.732-0.64,3.546-1.132,5.44-1.479c1.893-0.347,3.772-0.521,5.64-0.521c2.88,0,5.56,0.4,8.04,1.2s4.612,1.894,6.4,3.28
			c1.786,1.388,3.186,3.027,4.2,4.92c1.013,1.894,1.52,3.96,1.52,6.2c0,3.147-0.96,5.733-2.88,7.76
			c-1.92,2.027-4.454,3.388-7.6,4.08c1.76,0.32,3.36,0.92,4.8,1.8s2.666,1.974,3.68,3.28c1.013,1.308,1.787,2.773,2.32,4.399
			c0.532,1.628,0.8,3.32,0.8,5.08c0,2.828-0.654,5.268-1.96,7.32c-1.308,2.054-3,3.747-5.08,5.08c-2.08,1.334-4.427,2.308-7.04,2.92
			C24.946,339.551,22.306,339.859,19.64,339.859z"/>
	</g>
	<g>
		<path d="M0,219.139c0-3.681,0.2-6.906,0.6-9.681c0.4-2.772,1.146-5.199,2.24-7.279c1.093-2.08,2.56-3.906,4.4-5.48
			c1.84-1.572,4.2-3.053,7.08-4.439c1.707-0.801,3.36-1.601,4.96-2.4s3.026-1.692,4.28-2.68c1.252-0.986,2.266-2.093,3.04-3.32
			c0.772-1.227,1.16-2.64,1.16-4.24c0-2.186-0.64-3.826-1.92-4.92c-1.28-1.093-2.934-1.64-4.96-1.64c-1.28,0-2.534,0.188-3.76,0.56
			c-1.228,0.374-2.388,0.868-3.48,1.48c-1.094,0.613-2.12,1.294-3.08,2.04c-0.96,0.747-1.788,1.493-2.48,2.24l-8-8.48
			c0.853-1.013,2-2.053,3.44-3.12c1.44-1.066,3.12-2.053,5.04-2.96c1.92-0.906,4.066-1.652,6.44-2.24
			c2.373-0.586,4.92-0.88,7.64-0.88c6.347,0,11.213,1.588,14.6,4.76c3.386,3.174,5.08,7.508,5.08,13c0,2.348-0.32,4.388-0.96,6.12
			c-0.64,1.734-1.52,3.28-2.64,4.641c-1.12,1.359-2.454,2.56-4,3.6c-1.547,1.04-3.253,2.04-5.12,3c-1.654,0.854-3.188,1.68-4.6,2.48
			c-1.414,0.8-2.64,1.627-3.68,2.479c-1.04,0.854-1.854,1.76-2.44,2.72c-0.587,0.96-0.88,2-0.88,3.12h24.4v11.521H0z"/>
	</g>
	<g>
		<path d="M40.6,87.619v11.521H6.12V87.619H17.4v-33.2c-0.427,0.641-1.147,1.348-2.16,2.12c-1.014,0.774-2.16,1.521-3.44,2.24
			c-1.28,0.72-2.587,1.32-3.92,1.8c-1.333,0.48-2.534,0.721-3.6,0.721V49.539c1.44,0,2.92-0.386,4.44-1.159s2.92-1.627,4.2-2.561
			c1.28-0.933,2.333-1.8,3.16-2.6c0.826-0.801,1.266-1.253,1.32-1.36h13.04v45.76H40.6z"/>
	</g>
	<g>
		<rect x="81.64" y="96.82" width="302" height="30"/>
	</g>
	<g>
		<rect x="81.64" y="16.82" width="302" height="30"/>
	</g>
	<g>
		<rect x="81.64" y="336.82" width="302" height="30"/>
	</g>
	<g>
		<rect x="81.64" y="256.82" width="302" height="30"/>
	</g>
	<g>
		<rect x="81.64" y="176.82" width="302" height="30"/>
	</g>
</g>
<g>
</g>
<g>
</g>
<g>
</g>
<g>
</g>
<g>
</g>
<g>
</g>
<g>
</g>
<g>
</g>
<g>
</g>
<g>
</g>
<g>
</g>
<g>
</g>
<g>
</g>
<g>
</g>
<g>
</g>
</svg>
